<?xml version="1.0" encoding="UTF-8"?>
<svg id="lampen" xmlns="http://www.w3.org/2000/svg" viewBox="0 0 863.98 566.82">
  <defs>
    <style>
      .cls-1 {
        fill: #b63735;
      }

      .cls-1, .cls-2, .cls-3, .cls-4 {
        stroke-width: 0px;
      }

      .cls-2 {
        fill: #882c28;
      }

      .cls-3 {
        fill: #ffeebd;
        animation: lights-ani 1s infinite ease-in-out alternate;
      }

      @keyframes lights-ani {
        from{
          filter: drop-shadow(0 0 .1em white);
         }
          
        to{
          filter: drop-shadow(0 0 .3em white) drop-shadow(0 0 .1em white);
        }
      }

      .cls-4 {
        fill: #917667;
      }
    </style>
  </defs>
  <g id="touwtjes">
    <path class="cls-4" d="M309.16,248.6l.02-1.23c.01,3.97-.04,8.15-.09,12.26.47-8.95.88-19.52-.11-26.44.53-.75.78-9.44.65-9.61-.1-1.8-.18-3.63-.24-5.48.04,1.27.08,2.54.13,3.79-.05-1.25-.09-2.52-.13-3.79-.41-11.68-.23-24.36-.03-37.48.1-7.28.22-27.05.37-34.51.02-1.08.04-2.16.05-3.25q-.05,1.81-.1,3.62c-.14-4.55-.28-8.67-.37-12.66-.08.7-.15.83-.25,2.49l.05-2.04c-.22-1.86-.21-6.13-.3-8.15.12.43.14-1.15.16-2.55l-.08.55c.05-5.31-.05-11.47-.03-16.21,0-.66.04-1.16.08-1.46l-.09-4.55c.15.35.14-3.77.23-1.6-.18-3.4-.07-6.86-.26-10.1-.02-11.6-.14-23.93-.4-35.92l-.06.29c-.1-4.2-.41-7.9-.31-13-.21-3.64-.31-8.82-.64-10.27-.04-4.2-.21-5.88-.29-10-.16,1.06-.19-4-.32-1.98-.22,2.74-.03,2.89-.21,5.21l.05-.07c-.24,10.83-.38,21.68-.45,32.66.14,7.33.02,15.27.07,22.89.06,8.2.16,17.07.29,24.11.05,1.68-.09,2.89-.16,4.32.07,6.47.02,14.7.1,22,0-.14,0-.27,0-.36.03,3.88-.14,6.78-.11,10.57.05-.02.05.57.07.85-.21.66.44,22.29.32,23.62,0,.39.02.8.02,1.22-.09,7.99-.51,16.26-.47,23.12.1,1.49.19,3.17.3,4.42-.09,1.21.09,1.45.06,2.91-.42,3.71-.25,5.88-.1,3.97.06,3.05.02,6.12.03,8.83.03,1.26.06,2.51.1,3.78.04,1.08-.03,1.68-.13,2.22.06,2.76-.04,1.94-.09,4.84-.15.7.24,7.25.19,8.07l-.02-.47c-.03,3.34-.31,5.56-.33,8.83-.11,9.08,0,19-.05,27.41.16.08-.03-1.86.17-1.95-.03,4.96-.22,9.96-.25,14.97-.04.9-.12,2.01-.17,2.42-.06,1.6.07.94.05,2.12l-.14.16c.11,1.71-.16,2.5-.1,4.11.06.09.06.67.06,1.25-.15.03.01,1.76-.13,1.68v.02c0,.35.02.59,0,1.01.05.66.46,6.8.52,7.47l-.02.31c0,.92.11,1.31.14.78v1.13s-.02-.13-.02-.13v1.13c-.02.21-.09.44-.16.12.05.64.08,1.36.05,2,.09-1.78.22-3.98.37-5.84.05.76-.03,2.14-.01,2.97-.1.99-.18,3.02-.25,4.6,0,.35.17.59.1,1.38-.11.38,0,.89-.08,1.55-.06-.75-.03-1.49-.03-2.25-.14.13-.09,1.86-.13,2.46.04.28,0,1.76.04,2.68-.13-.4-.08.75-.15,1.3-.02.62.04,1.02.08.77.14.2.08-2.48.23-1.61-.07.23-.04,1.45-.04,2.11.08,0,.06-.45.13-.02-.02.73.08,1.51,0,1.93-.02-.14,0-.44,0-.65,0,.95-.5-5.17-.46-3.93.07-.32.46,5.43.46,4.79.04-.58.14.42.17-.19l-.09-.67c.03-.82.16-1.16.22-.87-.01,1.38-.53-3.91-.45-2.73l.04-.48c.05.5.09,1.83.01,2.35.08,0,.1.68.13,1.23v.2c.03.58,0,1.38.11,1.01-.01-3.38.78,2.22.82-1.05-.17,1.37-.17-.46-.19-1.9.06-.14.14-.78.19-1.82-.01-.9-.06-.53-.1-.7.04-.5.07-1.45.16-1.32-.11-.7.07-1.12.03-1.96-.05-.74-.05.05-.1-.47.01-1.11.03-2.66.05-3.54.08-.34.23-1.38.36-.62-.02,1.68-.21-.64-.18,1.11.19-.75.05,1.55.2,1.87.09-.56.09-1.69.06-2.63l-.03.19c-.03-.83-.06-2.5.04-3.4.07.21.12-.18.13.43v-1.15c0-.15-.03-.3-.05.04-.05-.54-.02-1.08.02-1.5.07-.12-.3-6.1-.25-5.91,0-.83.1-1.03.03-1.83-.06-.09.24,7.89.22,6.8.08-.71-.35-9.36-.22-9.87,0-.61-.02-1.35-.09-1.21.03-1.03.14.31.2-.43-.01-.02-.04.06-.03-.17l.09-.71c-.11-1.61.03-3.96-.11-5.64.08.49.21,1.04.28,2.12l-.04.19c.02.15.05,1.04.12,1.02.05-1.03.03-1.91-.04-2.99.02-.2.04-.43.06-.59,0,0-.02.02-.03.02.04-.35.05-.32.08-.19,0,.02.01.04.02.07.21-.64-.13-4.04-.02-5.91-.03-.55-.04-.05-.08-.74.08-1.92.15-3.24.2-5.25-.09-.64-.13-.69-.22.08l.03-1.51c.24,1.38.23-2.83.47-1.31.05-.44.07-1.35.03-2.2-.06-.09-.16-.22-.16-1.29.08-1.49.05-1.13.13-2.36.08-.29.11.16.17.11-.1-1.9.17-1.66.16-3.44-.02-1.12-.03-3.33-.17-3.39,0-1.51.11-1.51.22-1.36Z"/>
    <path class="cls-4" d="M508.7,85.8l-.02,1.23c-.01-3.97.04-8.15.09-12.26-.47,8.95-.88,19.52.11,26.44-.53.75-.78,9.44-.65,9.61.1,1.8.18,3.63.24,5.48-.04-1.27-.08-2.54-.13-3.79.05,1.25.09,2.52.13,3.79.41,11.68.23,24.36.03,37.48-.1,7.28-.22,27.05-.37,34.51-.02,1.08-.04,2.16-.05,3.25q.05-1.81.1-3.62c.14,4.55.28,8.67.37,12.66.08-.7.15-.83.25-2.49l-.05,2.04c.22,1.86.21,6.13.3,8.15-.12-.43-.14,1.15-.16,2.55l.08-.55c-.05,5.31.05,11.47.03,16.21,0,.66-.04,1.16-.08,1.46l.09,4.55c-.15-.35-.14,3.77-.23,1.6.18,3.4.07,6.86.26,10.1.02,11.6.14,23.93.4,35.92l.06-.29c.1,4.2.41,7.9.31,13,.21,3.64.31,8.82.64,10.27.04,4.2.21,5.88.29,10,.16-1.06.19,4,.32,1.98.22-2.74.03-2.89.21-5.21l-.05.07c.24-10.83.38-21.68.45-32.66-.14-7.33-.02-15.27-.07-22.89-.06-8.2-.16-17.07-.29-24.11-.05-1.68.09-2.89.16-4.32-.07-6.47-.02-14.7-.1-22,0,.14,0,.27,0,.36-.03-3.88.14-6.78.11-10.57-.05.02-.05-.57-.07-.85.21-.66-.44-22.29-.32-23.62-.01-.39-.02-.8-.02-1.22.09-7.99.51-16.26.47-23.12-.1-1.49-.19-3.17-.3-4.42.09-1.21-.09-1.45-.06-2.91.42-3.71.25-5.88.1-3.97-.06-3.05-.02-6.12-.03-8.83-.03-1.26-.06-2.51-.1-3.78-.04-1.08.03-1.68.13-2.22-.06-2.76.04-1.94.09-4.84.15-.7-.24-7.25-.19-8.07l.02.47c.03-3.34.31-5.56.33-8.83.11-9.08,0-19,.05-27.41-.16-.08.03,1.86-.17,1.95.03-4.96.22-9.96.25-14.97.04-.9.12-2.01.17-2.42.06-1.6-.07-.94-.05-2.12l.14-.16c-.11-1.71.16-2.5.1-4.11-.06-.09-.06-.67-.06-1.25.15-.03-.01-1.76.13-1.68v-.02c0-.35-.02-.59,0-1.01-.05-.66-.46-6.8-.52-7.47l.02-.31c0-.92-.11-1.31-.14-.78v-1.13s.02.13.02.13v-1.13c.02-.21.09-.44.16-.12-.05-.64-.08-1.36-.05-2-.09,1.78-.22,3.98-.37,5.84-.05-.76.03-2.14.01-2.97.1-.99.18-3.02.25-4.6,0-.35-.17-.59-.1-1.38.11-.38,0-.89.08-1.55.06.75.03,1.49.03,2.25.14-.13.09-1.86.13-2.46-.04-.28,0-1.76-.04-2.68.13.4.08-.75.15-1.3.02-.62-.04-1.02-.08-.77-.14-.2-.08,2.48-.23,1.61.07-.23.04-1.45.04-2.11-.08,0-.06.45-.13.02.02-.73-.08-1.51,0-1.93.02.14,0,.44,0,.65,0-.95.5,5.17.46,3.93-.07.32-.46-5.43-.46-4.79-.04.58-.14-.42-.17.19l.09.67c-.03.82-.16,1.16-.22.87.01-1.38.53,3.91.45,2.73l-.04.48c-.05-.5-.09-1.83-.01-2.35-.08,0-.1-.68-.13-1.23v-.2c-.03-.58,0-1.38-.11-1.01.01,3.38-.78-2.22-.82,1.05.17-1.37.17.46.19,1.9-.06.14-.14.78-.19,1.82.01.9.06.53.1.7-.04.5-.07,1.45-.16,1.32.11.7-.07,1.12-.03,1.96.05.74.05-.05.1.47-.01,1.11-.03,2.66-.05,3.54-.08.34-.23,1.38-.36.62.02-1.68.21.64.18-1.11-.19.75-.05-1.55-.2-1.87-.09.56-.09,1.69-.06,2.63l.03-.19c.03.83.06,2.5-.04,3.4-.07-.21-.12.18-.13-.43v1.15c0,.15.03.3.05-.04.05.54.02,1.08-.02,1.5-.07.12.3,6.1.25,5.91,0,.83-.1,1.03-.03,1.83.06.09-.24-7.89-.22-6.8-.08.71.35,9.36.22,9.87,0,.61.02,1.35.09,1.21-.03,1.03-.14-.31-.2.43.01.02.04-.06.03.17l-.09.71c.11,1.61-.03,3.96.11,5.64-.08-.49-.21-1.04-.28-2.12l.04-.19c-.02-.15-.05-1.04-.12-1.02-.05,1.03-.03,1.91.04,2.99-.02.2-.04.43-.06.59,0,0,.02-.02.03-.02-.04.35-.05.32-.08.19,0-.02-.01-.04-.02-.07-.21.64.13,4.04.02,5.91.03.55.04.05.08.74-.08,1.92-.15,3.24-.2,5.25.09.64.13.69.22-.08l-.03,1.51c-.24-1.38-.23,2.83-.47,1.31-.05.44-.07,1.35-.03,2.2.06.09.16.22.16,1.29-.08,1.49-.05,1.13-.13,2.36-.08.29-.11-.16-.17-.11.1,1.9-.17,1.66-.16,3.44.02,1.12.03,3.33.17,3.39,0,1.51-.11,1.51-.22,1.36Z"/>
  </g>
  <g id="arrow-backdrop">
    <path class="cls-2" d="M233.51,403.81l9.71,4.32,229.76-83.53s25.29-5.8,40.58,10.54c15.28,16.34-8.96-47.43-8.96-47.43l-271.09,116.1Z"/>
    <path class="cls-2" d="M520.37,253.71s35.63,14.04,39.57,35.17c3.94,21.13-26.11,207.41-26.11,207.41l-9.16-1.43-4.3-241.15Z"/>
    <polygon class="cls-2" points="500.21 566.82 516.46 566.82 567.46 503.2 558.02 500.07 500.21 566.82"/>
  </g>
  <path id="arrow" class="cls-1" d="M211.31,329.29l22.2,74.52,233.88-84.83s17.91-5.81,24.25,0c6.34,5.81,6.71,8.42,6.71,22.22s-5.59,149.17-5.59,149.17h-33.19l40.65,76.45,57.8-66.75-33.34-5.21,28.46-183.62c2.35-15.14-2.58-30.7-13.8-41.13-.53-.49-1.08-.99-1.65-1.47-18.21-15.61-17.69-25.49-70.24-14.57-52.55,10.93-256.15,75.22-256.15,75.22Z"/>
  <g id="lamps">
    <g>
      <circle class="cls-3" cx="226.39" cy="336.02" r="4.38"/>
      <circle class="cls-3" cx="243.81" cy="330.39" r="4.38"/>
      <circle class="cls-3" cx="261.5" cy="324.99" r="4.38"/>
      <circle class="cls-3" cx="279.04" cy="319.44" r="4.38"/>
      <circle class="cls-3" cx="296.47" cy="314.25" r="4.38"/>
      <circle class="cls-3" cx="315" cy="308.8" r="4.38"/>
      <circle class="cls-3" cx="332.78" cy="303.37" r="4.38"/>
      <circle class="cls-3" cx="350.51" cy="298.15" r="4.38"/>
      <circle class="cls-3" cx="366.58" cy="293.07" r="4.38"/>
      <circle class="cls-3" cx="384.66" cy="287" r="4.38"/>
      <circle class="cls-3" cx="403.01" cy="281.2" r="4.38"/>
      <circle class="cls-3" cx="421.63" cy="275.4" r="4.38"/>
      <circle class="cls-3" cx="440.72" cy="270.14" r="4.38"/>
      <circle class="cls-3" cx="459.81" cy="265.76" r="4.38"/>
      <circle class="cls-3" cx="480.05" cy="261.39" r="4.38"/>
      <circle class="cls-3" cx="501.91" cy="259.94" r="4.38"/>
      <circle class="cls-3" cx="521.87" cy="267.22" r="4.38"/>
      <circle class="cls-3" cx="534.69" cy="279.78" r="4.38"/>
      <circle class="cls-3" cx="542.79" cy="295.97" r="4.38"/>
      <circle class="cls-3" cx="540.93" cy="314.18" r="4.38"/>
      <circle class="cls-3" cx="538.97" cy="331.59" r="4.38"/>
      <circle class="cls-3" cx="536.55" cy="347.92" r="4.38"/>
      <circle class="cls-3" cx="534.12" cy="364.26" r="4.38"/>
      <circle class="cls-3" cx="531.56" cy="380.6" r="4.38"/>
      <circle class="cls-3" cx="529.75" cy="396.93" r="4.38"/>
      <circle class="cls-3" cx="527.99" cy="413.27" r="4.38"/>
      <circle class="cls-3" cx="525.97" cy="429.61" r="4.38"/>
      <circle class="cls-3" cx="523.62" cy="445.95" r="4.38"/>
      <circle class="cls-3" cx="521.59" cy="462.28" r="4.38"/>
      <circle class="cls-3" cx="516" cy="502.24" r="4.38"/>
      <circle class="cls-3" cx="498.46" cy="499.18" r="4.38"/>
      <circle class="cls-3" cx="500.21" cy="486.95" r="4.38"/>
      <circle class="cls-3" cx="501.32" cy="473.38" r="4.38"/>
      <circle class="cls-3" cx="501.95" cy="459.81" r="4.38"/>
      <circle class="cls-3" cx="502.84" cy="443.82" r="4.38"/>
      <circle class="cls-3" cx="503.83" cy="428.63" r="4.38"/>
      <circle class="cls-3" cx="504.59" cy="412.51" r="4.38"/>
      <circle class="cls-3" cx="504.59" cy="394.78" r="4.38"/>
      <circle class="cls-3" cx="505.7" cy="378.71" r="4.38"/>
      <circle class="cls-3" cx="506.49" cy="362.64" r="4.38"/>
      <circle class="cls-3" cx="507.12" cy="346.57" r="4.38"/>
      <circle class="cls-3" cx="507.12" cy="330.49" r="4.38"/>
      <circle class="cls-3" cx="502.11" cy="314.18" r="4.38"/>
      <circle class="cls-3" cx="487.3" cy="306.11" r="4.38"/>
      <circle class="cls-3" cx="470.1" cy="308.11" r="4.38"/>
      <circle class="cls-3" cx="452.39" cy="312.48" r="4.38"/>
      <circle class="cls-3" cx="436.28" cy="317.91" r="4.38"/>
      <circle class="cls-3" cx="421.31" cy="322.82" r="4.38"/>
      <circle class="cls-3" cx="406.33" cy="328.57" r="4.38"/>
      <circle class="cls-3" cx="392.18" cy="333.39" r="4.38"/>
      <circle class="cls-3" cx="471.99" cy="497.86" r="4.38"/>
      <circle class="cls-3" cx="480.13" cy="512.07" r="4.38"/>
      <circle class="cls-3" cx="501.59" cy="553.4" r="4.38"/>
      <circle class="cls-3" cx="510.34" cy="541.31" r="4.38"/>
      <circle class="cls-3" cx="521.59" cy="529.1" r="4.38"/>
      <circle class="cls-3" cx="532.14" cy="518.08" r="4.38"/>
      <circle class="cls-3" cx="495.08" cy="540.19" r="4.38"/>
      <circle class="cls-3" cx="488.05" cy="526.83" r="4.38"/>
      <circle class="cls-3" cx="484.51" cy="497.86" r="4.38"/>
      <circle class="cls-3" cx="517.22" cy="488.46" r="4.38"/>
      <circle class="cls-3" cx="519.24" cy="475.37" r="4.38"/>
      <circle class="cls-3" cx="544.71" cy="505.3" r="4.38"/>
      <circle class="cls-3" cx="530.35" cy="503.32" r="4.38"/>
      <circle class="cls-3" cx="230.77" cy="353.85" r="4.38"/>
      <circle class="cls-3" cx="236.15" cy="371.68" r="4.38"/>
      <circle class="cls-3" cx="241.4" cy="389.5" r="4.38"/>
      <circle class="cls-3" cx="258.45" cy="383.82" r="4.38"/>
      <circle class="cls-3" cx="274.67" cy="378.34" r="4.38"/>
      <circle class="cls-3" cx="292.09" cy="371.68" r="4.38"/>
      <circle class="cls-3" cx="307.79" cy="365.72" r="4.38"/>
      <circle class="cls-3" cx="322.72" cy="360.24" r="4.38"/>
      <circle class="cls-3" cx="337.66" cy="355.02" r="4.38"/>
      <circle class="cls-3" cx="351.56" cy="349.28" r="4.38"/>
      <circle class="cls-3" cx="366.13" cy="344.23" r="4.38"/>
      <circle class="cls-3" cx="378.26" cy="339.24" r="4.38"/>
    </g>
  </g>
</svg>