<?xml version="1.0" encoding="utf-8"?>
<!-- Generator: Adobe Illustrator 25.4.1, SVG Export Plug-In . SVG Version: 6.00 Build 0)  -->
<svg version="1.1" xmlns="http://www.w3.org/2000/svg" xmlns:xlink="http://www.w3.org/1999/xlink" x="0px" y="0px"
	 viewBox="0 0 1165.79 417.96" style="enable-background:new 0 0 1165.79 417.96;" xml:space="preserve">
	<g id="bovenkant">
		<g>
			<polygon class="st0" points="1153.78,331.73 1148.9,336.06 9.91,33.13 14.8,28.81 		"/>
			<polygon class="st0" points="1153.78,309.23 1148.9,313.55 9.91,10.62 14.8,6.3 		"/>
		</g>
		<g>
			<polygon class="st0" points="1153.78,397.87 1148.9,402.2 9.91,99.27 14.8,94.95 		"/>
			<polygon class="st0" points="1153.78,375.37 1148.9,379.69 9.91,76.76 14.8,72.44 		"/>
		</g>
	</g>
	<g id="binnenkant">
		<g>
			<g>
				<polygon class="st1" points="38.34,40.82 43.23,36.49 34.12,17.2 29.24,21.53 			"/>
				<polygon class="st1" points="13.24,34.25 18.12,29.93 25.45,20.4 23.92,19.83 			"/>
				<polygon class="st1" points="72.29,49.78 77.17,45.46 68.07,26.17 63.18,30.49 			"/>
				<polygon class="st1" points="47.18,43.22 52.07,38.89 59.39,29.37 57.67,28.98 			"/>
				<polygon class="st1" points="105.58,58.56 110.46,54.23 101.35,34.94 96.47,39.27 			"/>
				<polygon class="st1" points="80.47,51.99 85.35,47.66 92.68,38.14 90.96,37.75 			"/>
				<polygon class="st1" points="133.13,66.09 138.02,61.77 128.91,42.48 124.03,46.81 			"/>
				<polygon class="st1" points="108.03,59.53 112.91,55.2 120.24,45.68 118.71,45.08 			"/>
				<polygon class="st1" points="167.08,75.06 171.96,70.73 162.85,51.45 157.97,55.77 			"/>
				<polygon class="st1" points="141.97,68.49 146.85,64.17 154.18,54.64 152.45,54.25 			"/>
				<polygon class="st1" points="200.36,83.83 205.25,79.51 196.14,60.22 191.26,64.54 			"/>
				<polygon class="st1" points="175.26,77.27 180.14,72.94 187.47,63.42 185.74,63.02 			"/>
				<polygon class="st1" points="228.73,91.52 233.61,87.2 224.51,67.91 219.62,72.23 			"/>
				<polygon class="st1" points="203.62,84.95 208.51,80.63 215.83,71.11 214.26,70.51 			"/>
				<polygon class="st1" points="262.67,100.49 267.56,96.16 258.45,76.87 253.57,81.2 			"/>
				<polygon class="st1" points="237.57,93.92 242.45,89.59 249.78,80.07 248.05,79.68 			"/>
				<polygon class="st1" points="295.96,109.26 300.84,104.93 291.74,85.65 286.85,89.97 			"/>
				<polygon class="st1" points="270.85,102.69 275.74,98.37 283.07,88.84 281.34,88.45 			"/>
				<polygon class="st1" points="299.28,110.38 304.16,106.05 311.55,96.45 309.93,95.91 			"/>
				<polygon class="st1" points="358.33,125.91 363.21,121.58 354.11,102.3 349.23,106.62 			"/>
				<polygon class="st1" points="333.23,119.34 338.11,115.02 345.44,105.49 343.71,105.1 			"/>
				<polygon class="st1" points="391.62,134.68 396.5,130.36 387.4,111.07 382.51,115.39 			"/>
				<polygon class="st1" points="366.51,128.12 371.4,123.79 378.72,114.27 377,113.87 			"/>
				<polygon class="st1" points="420.04,142.37 424.92,138.04 415.81,118.75 410.93,123.08 			"/>
				<polygon class="st1" points="394.93,135.8 399.81,131.48 407.14,121.95 405.57,121.42 			"/>
				<polygon class="st1" points="453.98,151.33 458.86,147.01 449.76,127.72 444.87,132.04 			"/>
				<polygon class="st1" points="428.87,144.77 433.76,140.44 441.08,130.92 439.36,130.52 			"/>
				<polygon class="st1" points="487.27,160.1 492.15,155.78 483.05,136.49 478.16,140.82 			"/>
				<polygon class="st1" points="462.16,153.54 467.05,149.21 474.37,139.69 472.65,139.3 			"/>
				<polygon class="st1" points="512.19,166.86 517.07,162.54 507.96,143.25 503.08,147.57 			"/>
				<polygon class="st1" points="487.08,160.29 491.96,155.97 499.29,146.45 497.77,145.84 			"/>
				<polygon class="st1" points="546.13,175.83 551.01,171.5 541.91,152.21 537.02,156.54 			"/>
				<polygon class="st1" points="521.02,169.26 525.91,164.93 533.23,155.41 531.51,155.02 			"/>
				<polygon class="st1" points="584.3,180.27 579.41,184.6 570.31,165.31 575.19,160.99 			"/>
				<polygon class="st1" points="554.31,178.03 559.19,173.71 566.52,164.18 564.8,163.79 			"/>
				<polygon class="st1" points="324.39,116.94 329.27,112.62 320.17,93.33 315.28,97.65 			"/>
			</g>
			<g>
				<polygon class="st1" points="607.83,192.28 612.71,187.95 603.61,168.67 598.72,172.99 			"/>
				<polygon class="st1" points="582.72,185.71 587.61,181.39 594.93,171.86 593.41,171.29 			"/>
				<polygon class="st1" points="641.77,201.24 646.66,196.92 637.55,177.63 632.67,181.96 			"/>
				<polygon class="st1" points="616.67,194.68 621.55,190.35 628.88,180.83 627.15,180.44 			"/>
				<polygon class="st1" points="675.06,210.02 679.94,205.69 670.84,186.4 665.95,190.73 			"/>
				<polygon class="st1" points="649.95,203.45 654.84,199.13 662.16,189.6 660.44,189.21 			"/>
				<polygon class="st1" points="702.62,217.56 707.5,213.23 698.39,193.94 693.51,198.27 			"/>
				<polygon class="st1" points="677.51,210.99 682.39,206.66 689.72,197.14 688.2,196.54 			"/>
				<polygon class="st1" points="736.56,226.52 741.44,222.2 732.34,202.91 727.45,207.23 			"/>
				<polygon class="st1" points="711.45,219.95 716.34,215.63 723.66,206.11 721.94,205.71 			"/>
				<polygon class="st1" points="769.85,235.29 774.73,230.97 765.63,211.68 760.74,216.01 			"/>
				<polygon class="st1" points="744.74,228.73 749.62,224.4 756.95,214.88 755.23,214.49 			"/>
				<polygon class="st1" points="798.21,242.98 803.1,238.66 793.99,219.37 789.11,223.69 			"/>
				<polygon class="st1" points="773.11,236.42 777.99,232.09 785.32,222.57 783.74,221.97 			"/>
				<polygon class="st1" points="832.16,251.95 837.04,247.62 827.93,228.33 823.05,232.66 			"/>
				<polygon class="st1" points="807.05,245.38 811.93,241.06 819.26,231.53 817.54,231.14 			"/>
				<polygon class="st1" points="865.44,260.72 870.33,256.4 861.22,237.11 856.34,241.43 			"/>
				<polygon class="st1" points="840.34,254.15 845.22,249.83 852.55,240.31 850.82,239.91 			"/>
				<polygon class="st1" points="868.77,261.84 873.65,257.51 881.04,247.91 879.42,247.37 			"/>
				<polygon class="st1" points="927.82,277.37 932.7,273.05 923.59,253.76 918.71,258.08 			"/>
				<polygon class="st1" points="902.71,270.8 907.59,266.48 914.92,256.96 913.19,256.56 			"/>
				<polygon class="st1" points="961.1,286.14 965.99,281.82 956.88,262.53 952,266.85 			"/>
				<polygon class="st1" points="936,279.58 940.88,275.25 948.21,265.73 946.48,265.34 			"/>
				<polygon class="st1" points="989.52,293.83 994.4,289.5 985.3,270.21 980.41,274.54 			"/>
				<polygon class="st1" points="964.41,287.26 969.3,282.94 976.62,273.41 975.05,272.88 			"/>
				<polygon class="st1" points="1023.46,302.79 1028.35,298.47 1019.24,279.18 1014.36,283.5 			"/>
				<polygon class="st1" points="998.36,296.23 1003.24,291.9 1010.57,282.38 1008.84,281.99 			"/>
				<polygon class="st1" points="1056.75,311.57 1061.64,307.24 1052.53,287.95 1047.65,292.28 			"/>
				<polygon class="st1" points="1031.65,305 1036.53,300.68 1043.86,291.15 1042.13,290.76 			"/>
				<polygon class="st1" points="1081.67,318.32 1086.55,314 1077.45,294.71 1072.56,299.03 			"/>
				<polygon class="st1" points="1056.56,311.76 1061.45,307.43 1068.77,297.91 1067.25,297.3 			"/>
				<polygon class="st1" points="1115.61,327.29 1120.5,322.96 1111.39,303.67 1106.51,308 			"/>
				<polygon class="st1" points="1090.51,320.72 1095.39,316.4 1102.72,306.87 1100.99,306.48 			"/>
				<polygon class="st1" points="1153.79,331.73 1153.79,337.37 1148.9,341.7 1148.9,336.06 1139.8,316.77 1144.68,312.45 			"/>
				<polygon class="st1" points="1123.8,329.49 1128.68,325.17 1136.01,315.65 1134.28,315.25 			"/>
				<polygon class="st1" points="1148.9,319.19 1153.79,314.86 1153.79,309.22 1148.9,313.55 			"/>
				<polygon class="st1" points="893.87,268.41 898.76,264.08 889.65,244.79 884.77,249.12 			"/>
			</g>
		</g>
		<g>
			<g>
				<polygon class="st1" points="38.34,106.96 43.23,102.63 34.12,83.35 29.24,87.67 			"/>
				<polygon class="st1" points="13.24,100.39 18.12,96.07 25.45,86.54 23.92,85.97 			"/>
				<polygon class="st1" points="72.29,115.92 77.17,111.6 68.07,92.31 63.18,96.64 			"/>
				<polygon class="st1" points="47.18,109.36 52.07,105.03 59.39,95.51 57.67,95.12 			"/>
				<polygon class="st1" points="105.58,124.7 110.46,120.37 101.35,101.08 96.47,105.41 			"/>
				<polygon class="st1" points="80.47,118.13 85.35,113.81 92.68,104.28 90.96,103.89 			"/>
				<polygon class="st1" points="133.13,132.24 138.02,127.91 128.91,108.62 124.03,112.95 			"/>
				<polygon class="st1" points="108.03,125.67 112.91,121.35 120.24,111.82 118.71,111.22 			"/>
				<polygon class="st1" points="167.08,141.2 171.96,136.88 162.85,117.59 157.97,121.91 			"/>
				<polygon class="st1" points="141.97,134.63 146.85,130.31 154.18,120.79 152.45,120.39 			"/>
				<polygon class="st1" points="200.36,149.97 205.25,145.65 196.14,126.36 191.26,130.69 			"/>
				<polygon class="st1" points="175.26,143.41 180.14,139.08 187.47,129.56 185.74,129.17 			"/>
				<polygon class="st1" points="228.73,157.66 233.61,153.34 224.51,134.05 219.62,138.37 			"/>
				<polygon class="st1" points="203.62,151.1 208.51,146.77 215.83,137.25 214.26,136.65 			"/>
				<polygon class="st1" points="262.67,166.63 267.56,162.3 258.45,143.01 253.57,147.34 			"/>
				<polygon class="st1" points="237.57,160.06 242.45,155.74 249.78,146.21 248.05,145.82 			"/>
				<polygon class="st1" points="295.96,175.4 300.84,171.08 291.74,151.79 286.85,156.11 			"/>
				<polygon class="st1" points="270.85,168.83 275.74,164.51 283.07,154.99 281.34,154.59 			"/>
				<polygon class="st1" points="299.28,176.52 304.16,172.19 311.55,162.59 309.93,162.05 			"/>
				<polygon class="st1" points="358.33,192.05 363.21,187.73 354.11,168.44 349.23,172.76 			"/>
				<polygon class="st1" points="333.23,185.48 338.11,181.16 345.44,171.64 343.71,171.24 			"/>
				<polygon class="st1" points="391.62,200.82 396.5,196.5 387.4,177.21 382.51,181.53 			"/>
				<polygon class="st1" points="366.51,194.26 371.4,189.93 378.72,180.41 377,180.02 			"/>
				<polygon class="st1" points="420.04,208.51 424.92,204.18 415.81,184.89 410.93,189.22 			"/>
				<polygon class="st1" points="394.93,201.94 399.81,197.62 407.14,188.09 405.57,187.56 			"/>
				<polygon class="st1" points="453.98,217.47 458.86,213.15 449.76,193.86 444.87,198.18 			"/>
				<polygon class="st1" points="428.87,210.91 433.76,206.58 441.08,197.06 439.36,196.67 			"/>
				<polygon class="st1" points="487.27,226.25 492.15,221.92 483.05,202.63 478.16,206.96 			"/>
				<polygon class="st1" points="462.16,219.68 467.05,215.36 474.37,205.83 472.65,205.44 			"/>
				<polygon class="st1" points="512.19,233 517.07,228.68 507.96,209.39 503.08,213.71 			"/>
				<polygon class="st1" points="487.08,226.44 491.96,222.11 499.29,212.59 497.77,211.98 			"/>
				<polygon class="st1" points="546.13,241.97 551.01,237.64 541.91,218.35 537.02,222.68 			"/>
				<polygon class="st1" points="521.02,235.4 525.91,231.08 533.23,221.55 531.51,221.16 			"/>
				<polygon class="st1" points="584.3,246.41 579.41,250.74 570.31,231.45 575.19,227.13 			"/>
				<polygon class="st1" points="554.31,244.17 559.19,239.85 566.52,230.33 564.8,229.93 			"/>
				<polygon class="st1" points="324.39,183.09 329.27,178.76 320.17,159.47 315.28,163.8 			"/>
			</g>
			<g>
				<polygon class="st1" points="607.83,258.42 612.71,254.1 603.61,234.81 598.72,239.13 			"/>
				<polygon class="st1" points="582.72,251.85 587.61,247.53 594.93,238.01 593.41,237.43 			"/>
				<polygon class="st1" points="641.77,267.39 646.66,263.06 637.55,243.77 632.67,248.1 			"/>
				<polygon class="st1" points="616.67,260.82 621.55,256.5 628.88,246.97 627.15,246.58 			"/>
				<polygon class="st1" points="675.06,276.16 679.94,271.83 670.84,252.55 665.95,256.87 			"/>
				<polygon class="st1" points="649.95,269.59 654.84,265.27 662.16,255.74 660.44,255.35 			"/>
				<polygon class="st1" points="702.62,283.7 707.5,279.37 698.39,260.08 693.51,264.41 			"/>
				<polygon class="st1" points="677.51,277.13 682.39,272.81 689.72,263.28 688.2,262.68 			"/>
				<polygon class="st1" points="736.56,292.66 741.44,288.34 732.34,269.05 727.45,273.37 			"/>
				<polygon class="st1" points="711.45,286.1 716.34,281.77 723.66,272.25 721.94,271.86 			"/>
				<polygon class="st1" points="769.85,301.44 774.73,297.11 765.63,277.82 760.74,282.15 			"/>
				<polygon class="st1" points="744.74,294.87 749.62,290.54 756.95,281.02 755.23,280.63 			"/>
				<polygon class="st1" points="798.21,309.12 803.1,304.8 793.99,285.51 789.11,289.84 			"/>
				<polygon class="st1" points="773.11,302.56 777.99,298.23 785.32,288.71 783.74,288.11 			"/>
				<polygon class="st1" points="832.16,318.09 837.04,313.76 827.93,294.48 823.05,298.8 			"/>
				<polygon class="st1" points="807.05,311.52 811.93,307.2 819.26,297.68 817.54,297.28 			"/>
				<polygon class="st1" points="865.44,326.86 870.33,322.54 861.22,303.25 856.34,307.57 			"/>
				<polygon class="st1" points="840.34,320.3 845.22,315.97 852.55,306.45 850.82,306.05 			"/>
				<polygon class="st1" points="868.77,327.98 873.65,323.66 881.04,314.05 879.42,313.52 			"/>
				<polygon class="st1" points="927.82,343.51 932.7,339.19 923.59,319.9 918.71,324.22 			"/>
				<polygon class="st1" points="902.71,336.95 907.59,332.62 914.92,323.1 913.19,322.7 			"/>
				<polygon class="st1" points="961.1,352.28 965.99,347.96 956.88,328.67 952,333 			"/>
				<polygon class="st1" points="936,345.72 940.88,341.39 948.21,331.87 946.48,331.48 			"/>
				<polygon class="st1" points="989.52,359.97 994.4,355.65 985.3,336.36 980.41,340.68 			"/>
				<polygon class="st1" points="964.41,353.4 969.3,349.08 976.62,339.56 975.05,339.02 			"/>
				<polygon class="st1" points="1023.46,368.94 1028.35,364.61 1019.24,345.32 1014.36,349.65 			"/>
				<polygon class="st1" points="998.36,362.37 1003.24,358.04 1010.57,348.52 1008.84,348.13 			"/>
				<polygon class="st1" points="1056.75,377.71 1061.64,373.38 1052.53,354.09 1047.65,358.42 			"/>
				<polygon class="st1" points="1031.65,371.14 1036.53,366.82 1043.86,357.29 1042.13,356.9 			"/>
				<polygon class="st1" points="1081.67,384.46 1086.55,380.14 1077.45,360.85 1072.56,365.18 			"/>
				<polygon class="st1" points="1056.56,377.9 1061.45,373.57 1068.77,364.05 1067.25,363.44 			"/>
				<polygon class="st1" points="1115.61,393.43 1120.5,389.1 1111.39,369.82 1106.51,374.14 			"/>
				<polygon class="st1" points="1090.51,386.86 1095.39,382.54 1102.72,373.01 1100.99,372.62 			"/>
				<polygon class="st1" points="1153.79,397.87 1153.79,403.51 1148.9,407.84 1148.9,402.2 1139.8,382.91 1144.68,378.59 			"/>
				<polygon class="st1" points="1123.8,395.64 1128.68,391.31 1136.01,381.79 1134.28,381.39 			"/>
				<polygon class="st1" points="1148.9,385.33 1153.79,381 1153.79,375.37 1148.9,379.69 			"/>
				<polygon class="st1" points="893.87,334.55 898.76,330.22 889.65,310.93 884.77,315.26 			"/>
			</g>
		</g>
	</g>
	<g id="voorkant">
		<path class="st2" d="M1148.89,313.55L9.91,10.62v5.64l10.58,2.81L9.92,33.13H9.91v5.64L200.3,89.45v0.02l95.66,25.43l473.82,126.01
			v0.02l95.66,25.43l283.45,75.34v-5.64l-7.87-18.97l7.87,2.1V313.55z M13.41,34.06l10.41-14.1l0.84,0.22l8.92,19.24L13.41,34.06z
			M38.28,40.67l-8.06-19.01l24.15,6.42L43.49,42.06L38.28,40.67z M47.32,43.07l10.39-14.1l-0.03-0.01h0.03v0.01l1.09,0.29
			l8.75,19.19L47.32,43.07z M72.25,49.7l-7.87-18.95l23.24,6.16L76.93,50.94L72.25,49.7z M80.56,51.91L90.95,37.8l1.18,0.31
			l8.74,19.18L80.56,51.91z M97.69,39.59l17.58,4.76l-10.04,13.37L97.69,39.59z M108.2,59.34l10.4-14.11l1.1,0.29l8.67,19.18
			L108.2,59.34z M133.07,65.95l-7.79-18.94l23.88,6.34l-10.88,13.98L133.07,65.95z M142.11,68.35l10.38-14.11l1.1,0.29l8.75,19.2
			L142.11,68.35z M167.04,74.97l-7.88-18.95l23.24,6.17l-10.68,14.03L167.04,74.97z M175.35,77.18l10.39-14.1l1.18,0.31l8.74,19.17
			L175.35,77.18z M192.48,64.87l18.4,4.91l-10.54,14.01L192.48,64.87z M203.79,84.76l10.42-14.09l1,0.26l8.75,19.19L203.79,84.76z
			M228.66,91.37l-7.87-18.96l23.97,6.37l-10.88,13.98L228.66,91.37z M237.7,93.78l10.39-14.11l1.1,0.29l8.75,19.19L237.7,93.78z
			M262.63,100.4l-7.87-18.95L278,87.62l-10.68,14.03L262.63,100.4z M270.95,102.61l10.38-14.11l1.19,0.32l8.73,19.17L270.95,102.61z
			M288.08,90.29l18.41,4.9l-10.53,14.07L288.08,90.29z M299.45,110.19l10.37-14.12l1.06,0.28l8.74,19.2L299.45,110.19z
			M324.32,116.8l-7.87-18.97l23.97,6.37l-10.88,13.98L324.32,116.8z M333.36,119.2l10.39-14.11l1.1,0.29l8.75,19.2L333.36,119.2z
			M358.29,125.82l-7.87-18.95l23.24,6.17l-10.69,14.03L358.29,125.82z M366.61,128.03l10.38-14.11l1.18,0.32l8.74,19.17
			L366.61,128.03z M383.74,115.72l18.43,4.9l-10.56,14.06L383.74,115.72z M395.1,135.61l10.4-14.11l1.1,0.3l8.67,19.17L395.1,135.61z
			M419.97,142.22l-7.87-18.96l23.97,6.37l-10.88,13.97L419.97,142.22z M429.01,144.62l10.39-14.11l1.1,0.29l8.74,19.2L429.01,144.62
			z M453.94,151.25l-7.87-18.95l23.24,6.16l-10.69,14.03L453.94,151.25z M462.25,153.46l10.39-14.11l1.18,0.31l8.74,19.18
			L462.25,153.46z M479.39,141.14l14.93,3.97l-8.55,11.39L479.39,141.14z M487.27,160.11v-0.01h-0.01v-0.01l10.39-14.1l1.02,0.27
			l8.75,19.2L487.27,160.11z M512.12,166.71l-7.88-18.97l23.98,6.38l-10.88,13.98L512.12,166.71z M521.16,169.11l10.39-14.1
			l1.09,0.29l8.75,19.19L521.16,169.11z M546.09,175.74l-7.87-18.95l23.24,6.17l-10.69,14.02L546.09,175.74z M554.4,177.95
			l10.39-14.11l1.18,0.32l8.74,19.17L554.4,177.95z M579.4,184.58l-7.86-18.95l7.85,2.09l0.02,0.01l10.56,2.8L579.4,184.58z
			M582.89,185.52l10.41-14.1l0.84,0.22l8.92,19.24L582.89,185.52z M607.76,192.13l-8.06-19.01l24.15,6.42l-10.88,13.98
			L607.76,192.13z M616.8,194.53l10.39-14.1l-0.03-0.01h0.03v0.01l1.09,0.29l8.75,19.19L616.8,194.53z M641.73,201.16l-7.87-18.95
			l23.24,6.16l-10.69,14.03L641.73,201.16z M650.04,203.37l10.39-14.11l1.18,0.31l8.74,19.18L650.04,203.37z M667.17,191.05
			l17.58,4.76l-10.04,13.37L667.17,191.05z M677.68,210.8l10.4-14.11l1.1,0.29l8.67,19.18L677.68,210.8z M702.55,217.41l-7.79-18.94
			l23.88,6.34l-10.88,13.98L702.55,217.41z M711.59,219.81l10.38-14.11l1.1,0.29l8.75,19.2L711.59,219.81z M736.52,226.43
			l-7.88-18.95l23.24,6.17l-10.68,14.03L736.52,226.43z M744.83,228.64l10.39-14.1l1.18,0.31l8.74,19.17L744.83,228.64z
			M761.96,216.33l18.4,4.91l-10.54,14.01L761.96,216.33z M773.27,236.22l10.42-14.09l1,0.26l8.75,19.19L773.27,236.22z
			M798.14,242.83l-7.87-18.96l23.97,6.37l-10.88,13.98L798.14,242.83z M807.18,245.24l10.39-14.11l1.1,0.29l8.75,19.19
			L807.18,245.24z M832.11,251.86l-7.87-18.95l23.24,6.17l-10.68,14.03L832.11,251.86z M840.43,254.07l10.38-14.11l1.19,0.32
			l8.73,19.17L840.43,254.07z M857.56,241.75l18.41,4.9l-10.53,14.07L857.56,241.75z M868.93,261.65l10.37-14.12l1.06,0.28l8.74,19.2
			L868.93,261.65z M893.8,268.26l-7.87-18.97l23.97,6.37l-10.88,13.98L893.8,268.26z M902.84,270.66l10.39-14.11l1.1,0.29l8.75,19.2
			L902.84,270.66z M927.77,277.28l-7.87-18.95l23.24,6.17l-10.69,14.03L927.77,277.28z M936.09,279.49l10.38-14.11l1.18,0.32
			l8.74,19.17L936.09,279.49z M953.22,267.18l18.43,4.9l-10.56,14.06L953.22,267.18z M964.58,287.07l10.4-14.11l1.1,0.3l8.67,19.17
			L964.58,287.07z M989.45,293.68l-7.87-18.96l23.97,6.37l-10.88,13.97L989.45,293.68z M998.49,296.08l10.39-14.11l1.1,0.29
			l8.74,19.2L998.49,296.08z M1023.42,302.71l-7.87-18.95l23.24,6.16l-10.69,14.03L1023.42,302.71z M1031.73,304.92l10.39-14.11
			l1.18,0.31l8.74,19.18L1031.73,304.92z M1048.87,292.6l14.93,3.97l-8.55,11.39L1048.87,292.6z M1056.75,311.57v-0.01h-0.01v-0.01
			l10.39-14.1l1.02,0.27l8.75,19.2L1056.75,311.57z M1081.6,318.17l-7.88-18.97l23.98,6.38l-10.88,13.98L1081.6,318.17z
			M1090.64,320.57l10.39-14.1l1.09,0.29l8.75,19.19L1090.64,320.57z M1115.57,327.2l-7.87-18.95l23.24,6.17l-10.69,14.02
			L1115.57,327.2z M1144.19,334.79l-20.31-5.38l10.39-14.11l1.18,0.32L1144.19,334.79z"/>
		<path class="st2" d="M1148.89,379.69L9.91,76.76v5.64l10.58,2.81L9.92,99.27H9.91v5.64l190.39,50.68v0.02l95.66,25.43
			l473.82,126.01v0.02l95.66,25.43l283.45,75.34v-5.64l-7.87-18.97l7.87,2.1V379.69z M13.41,100.2l10.41-14.1l0.84,0.22l8.92,19.24
			L13.41,100.2z M38.28,106.81L30.22,87.8l24.15,6.42L43.49,108.2L38.28,106.81z M47.32,109.21l10.39-14.1l-0.03-0.01h0.03v0.01
			l1.09,0.29l8.75,19.19L47.32,109.21z M72.25,115.84l-7.87-18.95l23.24,6.16l-10.69,14.03L72.25,115.84z M80.56,118.05l10.39-14.11
			l1.18,0.31l8.74,19.18L80.56,118.05z M97.69,105.73l17.58,4.76l-10.04,13.37L97.69,105.73z M108.2,125.48l10.4-14.11l1.1,0.29
			l8.67,19.18L108.2,125.48z M133.07,132.09l-7.79-18.94l23.88,6.34l-10.88,13.98L133.07,132.09z M142.11,134.49l10.38-14.11
			l1.1,0.29l8.75,19.2L142.11,134.49z M167.04,141.11l-7.88-18.95l23.24,6.17l-10.68,14.03L167.04,141.11z M175.35,143.32l10.39-14.1
			l1.18,0.31l8.74,19.17L175.35,143.32z M192.48,131.01l18.4,4.91l-10.54,14.01L192.48,131.01z M203.79,150.9l10.42-14.09l1,0.26
			l8.75,19.19L203.79,150.9z M228.66,157.51l-7.87-18.96l23.97,6.37l-10.88,13.98L228.66,157.51z M237.7,159.92l10.39-14.11l1.1,0.29
			l8.75,19.19L237.7,159.92z M262.63,166.54l-7.87-18.95l23.24,6.17l-10.68,14.03L262.63,166.54z M270.95,168.75l10.38-14.11
			l1.19,0.32l8.73,19.17L270.95,168.75z M288.08,156.43l18.41,4.9l-10.53,14.07L288.08,156.43z M299.45,176.33l10.37-14.12l1.06,0.28
			l8.74,19.2L299.45,176.33z M324.32,182.94l-7.87-18.97l23.97,6.37l-10.88,13.98L324.32,182.94z M333.36,185.34l10.39-14.11
			l1.1,0.29l8.75,19.2L333.36,185.34z M358.29,191.96l-7.87-18.95l23.24,6.17l-10.69,14.03L358.29,191.96z M366.61,194.17
			l10.38-14.11l1.18,0.32l8.74,19.17L366.61,194.17z M383.74,181.86l18.43,4.9l-10.56,14.06L383.74,181.86z M395.1,201.75l10.4-14.11
			l1.1,0.3l8.67,19.17L395.1,201.75z M419.97,208.36l-7.87-18.96l23.97,6.37l-10.88,13.97L419.97,208.36z M429.01,210.76l10.39-14.11
			l1.1,0.29l8.74,19.2L429.01,210.76z M453.94,217.39l-7.87-18.95l23.24,6.16l-10.69,14.03L453.94,217.39z M462.25,219.6l10.39-14.11
			l1.18,0.31l8.74,19.18L462.25,219.6z M479.39,207.28l14.93,3.97l-8.55,11.39L479.39,207.28z M487.27,226.25v-0.01h-0.01v-0.01
			l10.39-14.1l1.02,0.27l8.75,19.2L487.27,226.25z M512.12,232.85l-7.88-18.97l23.98,6.38l-10.88,13.98L512.12,232.85z
			M521.16,235.25l10.39-14.1l1.09,0.29l8.75,19.19L521.16,235.25z M546.09,241.88l-7.87-18.95l23.24,6.17l-10.69,14.02
			L546.09,241.88z M554.4,244.09l10.39-14.11l1.18,0.32l8.74,19.17L554.4,244.09z M579.4,250.72l-7.86-18.95l7.85,2.09l0.02,0.01
			l10.56,2.8L579.4,250.72z M582.89,251.66l10.41-14.1l0.84,0.22l8.92,19.24L582.89,251.66z M607.76,258.27l-8.06-19.01l24.15,6.42
			l-10.88,13.98L607.76,258.27z M616.8,260.67l10.39-14.1l-0.03-0.01h0.03v0.01l1.09,0.29l8.75,19.19L616.8,260.67z M641.73,267.3
			l-7.87-18.95l23.24,6.16l-10.69,14.03L641.73,267.3z M650.04,269.51l10.39-14.11l1.18,0.31l8.74,19.18L650.04,269.51z
			M667.17,257.19l17.58,4.76l-10.04,13.37L667.17,257.19z M677.68,276.94l10.4-14.11l1.1,0.29l8.67,19.18L677.68,276.94z
			M702.55,283.55l-7.79-18.94l23.88,6.34l-10.88,13.98L702.55,283.55z M711.59,285.95l10.38-14.11l1.1,0.29l8.75,19.2L711.59,285.95
			z M736.52,292.57l-7.88-18.95l23.24,6.17l-10.68,14.03L736.52,292.57z M744.83,294.78l10.39-14.1l1.18,0.31l8.74,19.17
			L744.83,294.78z M761.96,282.47l18.4,4.91l-10.54,14.01L761.96,282.47z M773.27,302.36l10.42-14.09l1,0.26l8.75,19.19
			L773.27,302.36z M798.14,308.97l-7.87-18.96l23.97,6.37l-10.88,13.98L798.14,308.97z M807.18,311.38l10.39-14.11l1.1,0.29
			l8.75,19.19L807.18,311.38z M832.11,318l-7.87-18.95l23.24,6.17l-10.68,14.03L832.11,318z M840.43,320.21l10.38-14.11l1.19,0.32
			l8.73,19.17L840.43,320.21z M857.56,307.89l18.41,4.9l-10.53,14.07L857.56,307.89z M868.93,327.79l10.37-14.12l1.06,0.28l8.74,19.2
			L868.93,327.79z M893.8,334.4l-7.87-18.97l23.97,6.37l-10.88,13.98L893.8,334.4z M902.84,336.8l10.39-14.11l1.1,0.29l8.75,19.2
			L902.84,336.8z M927.77,343.42l-7.87-18.95l23.24,6.17l-10.69,14.03L927.77,343.42z M936.09,345.63l10.38-14.11l1.18,0.32
			l8.74,19.17L936.09,345.63z M953.22,333.32l18.43,4.9l-10.56,14.06L953.22,333.32z M964.58,353.21l10.4-14.11l1.1,0.3l8.67,19.17
			L964.58,353.21z M989.45,359.82l-7.87-18.96l23.97,6.37l-10.88,13.97L989.45,359.82z M998.49,362.22l10.39-14.11l1.1,0.29
			l8.74,19.2L998.49,362.22z M1023.42,368.85l-7.87-18.95l23.24,6.16l-10.69,14.03L1023.42,368.85z M1031.73,371.06l10.39-14.11
			l1.18,0.31l8.74,19.18L1031.73,371.06z M1048.87,358.74l14.93,3.97l-8.55,11.39L1048.87,358.74z M1056.75,377.71v-0.01h-0.01v-0.01
			l10.39-14.1l1.02,0.27l8.75,19.2L1056.75,377.71z M1081.6,384.31l-7.88-18.97l23.98,6.38l-10.88,13.98L1081.6,384.31z
			M1090.64,386.71l10.39-14.1l1.09,0.29l8.75,19.19L1090.64,386.71z M1115.57,393.34l-7.87-18.95l23.24,6.17l-10.69,14.02
			L1115.57,393.34z M1144.19,400.93l-20.31-5.38l10.39-14.11l1.18,0.32L1144.19,400.93z"/>
	</g>
</svg>
