<?xml version="1.0" encoding="utf-8"?>
<!-- Generator: Adobe Illustrator 25.4.1, SVG Export Plug-In . SVG Version: 6.00 Build 0)  -->
<svg version="1.1" xmlns="http://www.w3.org/2000/svg" xmlns:xlink="http://www.w3.org/1999/xlink" x="0px" y="0px"
	 viewBox="0 0 594.43 199.38" style="enable-background:new 0 0 594.43 199.38;" xml:space="preserve">
<style type="text/css">
	.st0{fill:#E02B2B;}
	.st1{fill:#CF6604;}
	.st2{fill:#2E150D;}
</style>
<g id="bovenkant">
	<g>
		<polygon class="st0" points="14.8,28.8 9.92,33.13 579.42,184.59 584.3,180.27 		"/>
		<polygon class="st0" points="14.8,6.3 9.92,10.62 579.42,162.09 584.3,157.76 		"/>
	</g>
</g>
<g id="binnenkant">
	<g>
		<polygon class="st1" points="38.34,40.82 43.23,36.49 34.12,17.2 29.24,21.53 		"/>
		<polygon class="st1" points="13.24,34.25 18.12,29.93 25.45,20.4 23.92,19.83 		"/>
		<polygon class="st1" points="72.29,49.78 77.17,45.46 68.07,26.17 63.18,30.49 		"/>
		<polygon class="st1" points="47.18,43.22 52.07,38.89 59.39,29.37 57.67,28.98 		"/>
		<polygon class="st1" points="105.58,58.56 110.46,54.23 101.35,34.94 96.47,39.27 		"/>
		<polygon class="st1" points="80.47,51.99 85.35,47.66 92.68,38.14 90.96,37.75 		"/>
		<polygon class="st1" points="133.13,66.09 138.02,61.77 128.91,42.48 124.03,46.81 		"/>
		<polygon class="st1" points="108.03,59.53 112.91,55.2 120.24,45.68 118.71,45.08 		"/>
		<polygon class="st1" points="167.08,75.06 171.96,70.73 162.85,51.45 157.97,55.77 		"/>
		<polygon class="st1" points="141.97,68.49 146.85,64.17 154.18,54.64 152.45,54.25 		"/>
		<polygon class="st1" points="200.36,83.83 205.25,79.51 196.14,60.22 191.26,64.54 		"/>
		<polygon class="st1" points="175.26,77.27 180.14,72.94 187.47,63.42 185.74,63.02 		"/>
		<polygon class="st1" points="228.73,91.52 233.61,87.2 224.51,67.91 219.62,72.23 		"/>
		<polygon class="st1" points="203.62,84.95 208.51,80.63 215.83,71.11 214.26,70.51 		"/>
		<polygon class="st1" points="262.67,100.49 267.56,96.16 258.45,76.87 253.57,81.2 		"/>
		<polygon class="st1" points="237.57,93.92 242.45,89.59 249.78,80.07 248.05,79.68 		"/>
		<polygon class="st1" points="295.96,109.26 300.84,104.93 291.74,85.65 286.85,89.97 		"/>
		<polygon class="st1" points="270.85,102.69 275.74,98.37 283.07,88.84 281.34,88.45 		"/>
		<polygon class="st1" points="299.28,110.38 304.16,106.05 311.55,96.45 309.93,95.91 		"/>
		<polygon class="st1" points="358.33,125.91 363.21,121.58 354.11,102.3 349.23,106.62 		"/>
		<polygon class="st1" points="333.23,119.34 338.11,115.02 345.44,105.49 343.71,105.1 		"/>
		<polygon class="st1" points="391.62,134.68 396.5,130.36 387.4,111.07 382.51,115.39 		"/>
		<polygon class="st1" points="366.51,128.12 371.4,123.79 378.72,114.27 377,113.87 		"/>
		<polygon class="st1" points="420.04,142.37 424.92,138.04 415.81,118.75 410.93,123.08 		"/>
		<polygon class="st1" points="394.93,135.8 399.81,131.48 407.14,121.95 405.57,121.42 		"/>
		<polygon class="st1" points="453.98,151.33 458.86,147.01 449.76,127.72 444.87,132.04 		"/>
		<polygon class="st1" points="428.87,144.77 433.76,140.44 441.08,130.92 439.36,130.52 		"/>
		<polygon class="st1" points="487.27,160.1 492.15,155.78 483.05,136.49 478.16,140.82 		"/>
		<polygon class="st1" points="462.16,153.54 467.05,149.21 474.37,139.69 472.65,139.3 		"/>
		<polygon class="st1" points="512.19,166.86 517.07,162.54 507.96,143.25 503.08,147.57 		"/>
		<polygon class="st1" points="487.08,160.29 491.96,155.97 499.29,146.45 497.77,145.84 		"/>
		<polygon class="st1" points="546.13,175.83 551.01,171.5 541.91,152.21 537.02,156.54 		"/>
		<polygon class="st1" points="521.02,169.26 525.91,164.93 533.23,155.41 531.51,155.02 		"/>
		<polygon class="st1" points="584.3,180.27 584.3,185.91 579.41,190.24 579.41,184.6 570.31,165.31 575.19,160.99 		"/>
		<polygon class="st1" points="554.31,178.03 559.19,173.71 566.52,164.18 564.8,163.79 		"/>
		<polygon class="st1" points="579.42,167.73 584.3,163.4 584.3,157.76 579.42,162.09 		"/>
		<polygon class="st1" points="324.39,116.94 329.27,112.62 320.17,93.33 315.28,97.65 		"/>
	</g>
</g>
<g id="voorkant">
	<path class="st2" d="M579.41,162.09L9.91,10.62v5.64l10.58,2.81L9.92,33.13H9.91v5.64L200.3,89.45v0.02l95.66,25.43l283.45,75.34
		v-5.64l-7.87-18.97l7.87,2.1V162.09z M13.41,34.06l10.41-14.1l0.84,0.22l8.92,19.24L13.41,34.06z M38.28,40.67l-8.06-19.01
		l24.15,6.42L43.49,42.06L38.28,40.67z M47.32,43.07l10.39-14.1l-0.03-0.01h0.03v0.01l1.09,0.29l8.75,19.19L47.32,43.07z
		 M72.25,49.7l-7.87-18.95l23.24,6.16L76.93,50.94L72.25,49.7z M80.56,51.91L90.95,37.8l1.18,0.31l8.74,19.18L80.56,51.91z
		 M97.69,39.59l17.58,4.76l-10.04,13.37L97.69,39.59z M108.2,59.34l10.4-14.11l1.1,0.29l8.67,19.18L108.2,59.34z M133.07,65.95
		l-7.79-18.94l23.88,6.34l-10.88,13.98L133.07,65.95z M142.11,68.35l10.38-14.11l1.1,0.29l8.75,19.2L142.11,68.35z M167.04,74.97
		l-7.88-18.95l23.24,6.17l-10.68,14.03L167.04,74.97z M175.35,77.18l10.39-14.1l1.18,0.31l8.74,19.17L175.35,77.18z M192.48,64.87
		l18.4,4.91l-10.54,14.01L192.48,64.87z M203.79,84.76l10.42-14.09l1,0.26l8.75,19.19L203.79,84.76z M228.66,91.37l-7.87-18.96
		l23.97,6.37l-10.88,13.98L228.66,91.37z M237.7,93.78l10.39-14.11l1.1,0.29l8.75,19.19L237.7,93.78z M262.63,100.4l-7.87-18.95
		L278,87.62l-10.68,14.03L262.63,100.4z M270.95,102.61l10.38-14.11l1.19,0.32l8.73,19.17L270.95,102.61z M288.08,90.29l18.41,4.9
		l-10.53,14.07L288.08,90.29z M299.45,110.19l10.37-14.12l1.06,0.28l8.74,19.2L299.45,110.19z M324.32,116.8l-7.87-18.97l23.97,6.37
		l-10.88,13.98L324.32,116.8z M333.36,119.2l10.39-14.11l1.1,0.29l8.75,19.2L333.36,119.2z M358.29,125.82l-7.87-18.95l23.24,6.17
		l-10.69,14.03L358.29,125.82z M366.61,128.03l10.38-14.11l1.18,0.32l8.74,19.17L366.61,128.03z M383.74,115.72l18.43,4.9
		l-10.56,14.06L383.74,115.72z M395.1,135.61l10.4-14.11l1.1,0.3l8.67,19.17L395.1,135.61z M419.97,142.22l-7.87-18.96l23.97,6.37
		l-10.88,13.97L419.97,142.22z M429.01,144.62l10.39-14.11l1.1,0.29l8.74,19.2L429.01,144.62z M453.94,151.25l-7.87-18.95
		l23.24,6.16l-10.69,14.03L453.94,151.25z M462.25,153.46l10.39-14.11l1.18,0.31l8.74,19.18L462.25,153.46z M479.39,141.14
		l14.93,3.97l-8.55,11.39L479.39,141.14z M487.27,160.11v-0.01h-0.01v-0.01l10.39-14.1l1.02,0.27l8.75,19.2L487.27,160.11z
		 M512.12,166.71l-7.88-18.97l23.98,6.38l-10.88,13.98L512.12,166.71z M521.16,169.11l10.39-14.1l1.09,0.29l8.75,19.19
		L521.16,169.11z M546.09,175.74l-7.87-18.95l23.24,6.17l-10.69,14.02L546.09,175.74z M574.71,183.33l-20.31-5.38l10.39-14.11
		l1.18,0.32L574.71,183.33z"/>
</g>
</svg>
