<svg xmlns="http://www.w3.org/2000/svg" id="Layer_4" data-name="Layer 4" viewBox="357.52 61 119.54 456.53">
  <defs>
    <style>
      .cls-1 {
        fill: #b63735;
      }

      .cls-1, .cls-2, .cls-3 {
        stroke-width: 0px;
      }

      .cls-2 {
        fill: #ffeebd;
      }

      .cls-3 {
        fill: #917667;
      }
    </style>
  </defs>
  <g id="o">
    <g id="touw">
      <path class="cls-3" d="M389.94,315.78l.02-1.36c.01,4.4-.04,9.03-.09,13.6.47-9.93.88-21.65-.11-29.33.53-.83.78-10.47.65-10.66-.1-2-.18-4.03-.24-6.07.04,1.41.08,2.81.13,4.2-.05-1.39-.09-2.79-.13-4.2-.41-12.95-.23-27.01-.03-41.57.1-8.07.22-30,.37-38.27.02-1.2.04-2.39.05-3.6q-.05,2.01-.1,4.01c-.14-5.05-.28-9.62-.37-14.04-.08.78-.15.92-.25,2.77l.05-2.26c-.22-2.06-.21-6.8-.3-9.03.12.48.14-1.28.16-2.83l-.08.61c.05-5.89-.05-12.72-.03-17.98,0-.73.04-1.28.08-1.61l-.09-5.04c.15.39.14-4.18.23-1.78-.18-3.77-.07-7.6-.26-11.2-.02-12.86-.14-26.54-.4-39.84l-.06.33c-.1-4.66-.41-8.76-.31-14.42-.21-4.04-.31-9.79-.64-11.39-.04-4.66-.21-6.52-.29-11.09-.16,1.18-.19-4.44-.32-2.19-.22,3.03-.03,3.2-.21,5.77l.05-.08c-.24,12.01-.38,24.04-.45,36.22.14,8.13.02,16.94.07,25.39.06,9.09.16,18.93.29,26.74.05,1.86-.09,3.2-.16,4.79.07,7.17.02,16.31.1,24.4,0-.15,0-.3,0-.4.03,4.3-.14,7.52-.11,11.72.05-.02.05.63.07.95-.21.73.44,24.72.32,26.2.01.44.02.89.02,1.35-.09,8.86-.51,18.03-.47,25.64.1,1.65.19,3.51.3,4.9-.09,1.35.09,1.6.06,3.23-.42,4.12-.25,6.53-.1,4.4.06,3.39.02,6.78.03,9.79.03,1.4.06,2.78.1,4.19.04,1.19-.03,1.86-.13,2.46.06,3.06-.04,2.16-.09,5.36-.15.78.24,8.04.19,8.95l-.02-.52c-.03,3.71-.31,6.17-.33,9.8-.11,10.07,0,21.07-.05,30.4.16.09-.03-2.06.17-2.17-.03,5.5-.22,11.05-.25,16.6-.04,1-.12,2.23-.17,2.68-.06,1.77.07,1.05.05,2.35l-.14.18c.11,1.9-.16,2.78-.1,4.56.06.09.06.75.06,1.38-.15.03.01,1.96-.13,1.86v.02c0,.38.02.66,0,1.12.05.73.46,7.54.52,8.28l-.02.34c0,1.02.11,1.46.14.86v1.26s-.02-.15-.02-.15v1.25c-.02.23-.09.49-.16.14.05.71.08,1.5.05,2.21.09-1.97.22-4.42.37-6.48.05.85-.03,2.38-.01,3.29-.1,1.1-.18,3.35-.25,5.1,0,.39.17.65.1,1.53-.11.43,0,.99-.08,1.71-.06-.84-.03-1.65-.03-2.5-.14.15-.09,2.06-.13,2.73.04.31,0,1.95.04,2.97-.13-.45-.08.83-.15,1.44-.02.69.04,1.13.08.85.14.22.08-2.75.23-1.79-.07.25-.04,1.61-.04,2.34.08,0,.06-.5.13-.03-.02.81.08,1.67,0,2.14-.02-.15,0-.49,0-.72,0,1.06-.5-5.73-.46-4.36.07-.36.46,6.02.46,5.32.04-.64.14.46.17-.21l-.09-.74c.03-.91.16-1.29.22-.96-.01,1.53-.53-4.34-.45-3.03l.04-.53c.05.55.09,2.03.01,2.6.08,0,.1.75.13,1.37v.22c.03.64,0,1.53.11,1.12-.01-3.75.78,2.46.82-1.17-.17,1.52-.17-.51-.19-2.11.06-.15.14-.87.19-2.01-.01-.99-.06-.59-.1-.78.04-.55.07-1.61.16-1.47-.11-.78.07-1.24.03-2.17-.05-.82-.05.06-.1-.53.01-1.23.03-2.95.05-3.93.08-.38.23-1.53.36-.69-.02,1.86-.21-.71-.18,1.23.19-.84.05,1.72.2,2.07.09-.62.09-1.87.06-2.92l-.03.21c-.03-.92-.06-2.77.04-3.77.07.24.12-.2.13.48v-1.27c0-.16-.03-.33-.05.04-.05-.6-.02-1.2.02-1.66.07-.14-.3-6.76-.25-6.56,0-.92.1-1.14.03-2.03-.06-.09.24,8.75.22,7.54.08-.78-.35-10.38-.22-10.95,0-.68-.02-1.5-.09-1.34.03-1.15.14.34.2-.47-.01-.02-.04.07-.03-.19l.09-.78c-.11-1.78.03-4.39-.11-6.26.08.54.21,1.16.28,2.36l-.04.21c.02.17.05,1.16.12,1.13.05-1.14.03-2.12-.04-3.31.02-.22.04-.48.06-.65,0,0-.02.02-.03.02.04-.39.05-.35.08-.21,0,.02.01.04.02.08.21-.71-.13-4.48-.02-6.56-.03-.61-.04-.06-.08-.82.08-2.13.15-3.59.2-5.82-.09-.71-.13-.77-.22.09l.03-1.68c.24,1.53.23-3.14.47-1.45.05-.49.07-1.5.03-2.44-.06-.09-.16-.24-.16-1.43.08-1.65.05-1.25.13-2.62.08-.32.11.18.17.12-.1-2.1.17-1.84.16-3.82-.02-1.24-.03-3.7-.17-3.76,0-1.67.11-1.67.22-1.51Z"/>
    </g>
    <g id="touw-2" data-name="touw">
      <path class="cls-3" d="M447.38,315.78l.02-1.36c.01,4.4-.04,9.03-.09,13.6.47-9.93.88-21.65-.11-29.33.53-.83.78-10.47.65-10.66-.1-2-.18-4.03-.24-6.07.04,1.41.08,2.81.13,4.2-.05-1.39-.09-2.79-.13-4.2-.41-12.95-.23-27.01-.03-41.57.1-8.07.22-30,.37-38.27.02-1.2.04-2.39.05-3.6q-.05,2.01-.1,4.01c-.14-5.05-.28-9.62-.37-14.04-.08.78-.15.92-.25,2.77l.05-2.26c-.22-2.06-.21-6.8-.3-9.03.12.48.14-1.28.16-2.83l-.08.61c.05-5.89-.05-12.72-.03-17.98,0-.73.04-1.28.08-1.61l-.09-5.04c.15.39.14-4.18.23-1.78-.18-3.77-.07-7.6-.26-11.2-.02-12.86-.14-26.54-.4-39.84l-.06.33c-.1-4.66-.41-8.76-.31-14.42-.21-4.04-.31-9.79-.64-11.39-.04-4.66-.21-6.52-.29-11.09-.16,1.18-.19-4.44-.32-2.19-.22,3.03-.03,3.2-.21,5.77l.05-.08c-.24,12.01-.38,24.04-.45,36.22.14,8.13.02,16.94.07,25.39.06,9.09.16,18.93.29,26.74.05,1.86-.09,3.2-.16,4.79.07,7.17.02,16.31.1,24.4,0-.15,0-.3,0-.4.03,4.3-.14,7.52-.11,11.72.05-.02.05.63.07.95-.21.73.44,24.72.32,26.2.01.44.02.89.02,1.35-.09,8.86-.51,18.03-.47,25.64.1,1.65.19,3.51.3,4.9-.09,1.35.09,1.6.06,3.23-.42,4.12-.25,6.53-.1,4.4.06,3.39.02,6.78.03,9.79.03,1.4.06,2.78.1,4.19.04,1.19-.03,1.86-.13,2.46.06,3.06-.04,2.16-.09,5.36-.15.78.24,8.04.19,8.95l-.02-.52c-.03,3.71-.31,6.17-.33,9.8-.11,10.07,0,21.07-.05,30.4.16.09-.03-2.06.17-2.17-.03,5.5-.22,11.05-.25,16.6-.04,1-.12,2.23-.17,2.68-.06,1.77.07,1.05.05,2.35l-.14.18c.11,1.9-.16,2.78-.1,4.56.06.09.06.75.06,1.38-.15.03.01,1.96-.13,1.86v.02c0,.38.02.66,0,1.12.05.73.46,7.54.52,8.28l-.02.34c0,1.02.11,1.46.14.86v1.26s-.02-.15-.02-.15v1.25c-.02.23-.09.49-.16.14.05.71.08,1.5.05,2.21.09-1.97.22-4.42.37-6.48.05.85-.03,2.38-.01,3.29-.1,1.1-.18,3.35-.25,5.1,0,.39.17.65.1,1.53-.11.43,0,.99-.08,1.71-.06-.84-.03-1.65-.03-2.5-.14.15-.09,2.06-.13,2.73.04.31,0,1.95.04,2.97-.13-.45-.08.83-.15,1.44-.02.69.04,1.13.08.85.14.22.08-2.75.23-1.79-.07.25-.04,1.61-.04,2.34.08,0,.06-.5.13-.03-.02.81.08,1.67,0,2.14-.02-.15,0-.49,0-.72,0,1.06-.5-5.73-.46-4.36.07-.36.46,6.02.46,5.32.04-.64.14.46.17-.21l-.09-.74c.03-.91.16-1.29.22-.96-.01,1.53-.53-4.34-.45-3.03l.04-.53c.05.55.09,2.03.01,2.6.08,0,.1.75.13,1.37v.22c.03.64,0,1.53.11,1.12-.01-3.75.78,2.46.82-1.17-.17,1.52-.17-.51-.19-2.11.06-.15.14-.87.19-2.01-.01-.99-.06-.59-.1-.78.04-.55.07-1.61.16-1.47-.11-.78.07-1.24.03-2.17-.05-.82-.05.06-.1-.53.01-1.23.03-2.95.05-3.93.08-.38.23-1.53.36-.69-.02,1.86-.21-.71-.18,1.23.19-.84.05,1.72.2,2.07.09-.62.09-1.87.06-2.92l-.03.21c-.03-.92-.06-2.77.04-3.77.07.24.12-.2.13.48v-1.27c0-.16-.03-.33-.05.04-.05-.6-.02-1.2.02-1.66.07-.14-.3-6.76-.25-6.56,0-.92.1-1.14.03-2.03-.06-.09.24,8.75.22,7.54.08-.78-.35-10.38-.22-10.95,0-.68-.02-1.5-.09-1.34.03-1.15.14.34.2-.47-.01-.02-.04.07-.03-.19l.09-.78c-.11-1.78.03-4.39-.11-6.26.08.54.21,1.16.28,2.36l-.04.21c.02.17.05,1.16.12,1.13.05-1.14.03-2.12-.04-3.31.02-.22.04-.48.06-.65,0,0-.02.02-.03.02.04-.39.05-.35.08-.21,0,.02.01.04.02.08.21-.71-.13-4.48-.02-6.56-.03-.61-.04-.06-.08-.82.08-2.13.15-3.59.2-5.82-.09-.71-.13-.77-.22.09l.03-1.68c.24,1.53.23-3.14.47-1.45.05-.49.07-1.5.03-2.44-.06-.09-.16-.24-.16-1.43.08-1.65.05-1.25.13-2.62.08-.32.11.18.17.12-.1-2.1.17-1.84.16-3.82-.02-1.24-.03-3.7-.17-3.76,0-1.67.11-1.67.22-1.51Z"/>
    </g>
    <path class="cls-1" d="M417.29,517.53c-33.06,0-59.77-27.3-59.77-72.07s26.72-72.07,59.77-72.07,59.77,27.3,59.77,72.07-26.72,72.07-59.77,72.07ZM428.16,427.8c0-11.65-3.17-20.38-10.87-20.38s-10.87,8.74-10.87,20.38v35.31c0,11.65,3.02,20.38,10.87,20.38s10.87-8.74,10.87-20.38v-35.31Z"/>
    <circle class="cls-2" cx="416.53" cy="388.95" r="8.55"/>
    <circle class="cls-2" cx="447.1" cy="413.13" r="8.55"/>
    <circle class="cls-2" cx="455.65" cy="442.94" r="8.55"/>
    <circle class="cls-2" cx="447.1" cy="478.22" r="8.55"/>
    <circle class="cls-2" cx="416.53" cy="502.18" r="8.55"/>
    <circle class="cls-2" cx="385.95" cy="478.22" r="8.55"/>
    <circle class="cls-2" cx="379.57" cy="442.94" r="8.55"/>
    <circle class="cls-2" cx="388.12" cy="413.13" r="8.55"/>
  </g>
</svg>